<?xml version="1.0" standalone="no"?>
<!DOCTYPE svg PUBLIC "-//W3C//DTD SVG 20010904//EN"
 "http://www.w3.org/TR/2001/REC-SVG-20010904/DTD/svg10.dtd">
<svg version="1.0" xmlns="http://www.w3.org/2000/svg"
 width="1024.000000pt" height="1024.000000pt" viewBox="0 0 1024.000000 1024.000000"
 preserveAspectRatio="xMidYMid meet">
<metadata>
Created by potrace 1.16, written by Peter Selinger 2001-2019
</metadata>
<g transform="translate(0.000000,1024.000000) scale(0.100000,-0.100000)"
fill="#000000" stroke="none">
<path d="M2331 7060 c-53 -13 -113 -61 -140 -113 -52 -102 -24 -216 72 -287
l47 -35 0 -92 0 -92 -272 -3 -273 -3 -67 -32 c-124 -59 -211 -167 -238 -297
l-11 -54 -61 -11 c-64 -11 -112 -41 -152 -95 -19 -25 -21 -44 -24 -197 -3
-158 -2 -173 19 -215 27 -57 78 -91 157 -106 l61 -11 3 -756 3 -756 23 -58
c47 -115 145 -209 258 -247 59 -20 78 -21 670 -18 l609 3 68 33 c86 43 156
113 199 199 l33 68 3 766 2 767 58 7 c95 12 147 47 177 118 18 44 22 328 4
374 -24 65 -98 116 -186 128 -29 4 -52 10 -51 13 7 23 -18 106 -49 164 -43 83
-103 140 -191 181 l-67 32 -270 3 -270 3 2 95 2 94 43 33 c83 63 114 187 68
276 -28 57 -93 108 -152 120 -55 12 -59 12 -107 1z m651 -812 c50 -15 122 -78
151 -132 l22 -41 0 -1070 0 -1070 -27 -52 c-15 -28 -43 -63 -61 -77 -75 -57
-57 -56 -679 -56 -555 0 -574 1 -618 21 -55 25 -95 62 -123 114 l-22 40 0
1075 0 1075 22 41 c27 51 101 117 145 131 49 16 1138 17 1190 1z"/>
<path d="M1965 5966 c-132 -57 -118 -247 20 -285 95 -26 185 44 185 144 0 65
-28 110 -83 135 -49 23 -80 24 -122 6z"/>
<path d="M2706 5970 c-40 -13 -66 -38 -88 -89 -44 -97 26 -202 136 -203 151
-3 209 192 82 275 -31 21 -93 29 -130 17z"/>
<path d="M2080 5510 c-26 -26 -26 -70 0 -103 12 -15 53 -42 93 -62 132 -65
292 -65 424 0 80 40 113 73 113 116 0 33 -31 69 -60 69 -10 0 -50 -16 -87 -35
-128 -66 -240 -66 -360 1 -70 39 -95 42 -123 14z"/>
<path d="M2077 4999 l-99 -100 -48 45 c-59 55 -97 61 -130 19 -32 -40 -19 -68
69 -155 113 -113 115 -112 263 45 151 160 159 177 113 222 -42 43 -61 34 -168
-76z"/>
<path d="M2410 4980 c-24 -24 -26 -67 -4 -98 15 -22 18 -22 283 -22 247 0 269
1 284 18 23 25 21 78 -3 102 -19 19 -33 20 -280 20 -247 0 -261 -1 -280 -20z"/>
<path d="M2076 4560 l-98 -101 -49 46 c-58 54 -96 60 -129 18 -32 -40 -19 -68
69 -155 115 -114 115 -114 275 58 134 144 143 160 105 208 -38 49 -65 37 -173
-74z"/>
<path d="M2410 4540 c-27 -27 -26 -81 1 -106 20 -18 39 -19 281 -19 l260 0 19
24 c25 30 24 76 -1 101 -19 19 -33 20 -280 20 -247 0 -261 -1 -280 -20z"/>
<path d="M2076 4120 l-99 -100 -48 45 c-63 59 -109 62 -138 8 -19 -37 -3 -68
79 -147 113 -111 114 -111 268 54 67 71 124 141 128 156 9 35 -23 78 -62 82
-25 3 -42 -10 -128 -98z"/>
<path d="M2416 4109 c-34 -27 -36 -79 -4 -109 21 -19 34 -20 274 -20 239 0
253 1 278 21 19 15 26 30 26 54 0 24 -7 39 -26 54 -25 20 -39 21 -274 21 -235
0 -249 -1 -274 -21z"/>
<path d="M6913 5503 c-32 -6 -72 -51 -79 -88 -18 -98 117 -165 192 -94 52 48
35 142 -31 173 -33 16 -41 17 -82 9z"/>
<path d="M5500 5495 c0 0 -1 -224 -3 -498 l-2 -497 98 0 97 0 0 37 0 36 23
-21 c67 -63 201 -84 305 -48 65 22 154 101 187 166 54 107 54 245 0 357 -34
69 -120 146 -187 169 -105 36 -230 14 -300 -53 l-28 -27 0 190 0 189 -95 0
c-52 0 -95 0 -95 0z m419 -465 c39 -11 86 -52 108 -94 20 -38 19 -135 0 -173
-53 -101 -178 -133 -263 -68 -81 62 -99 186 -38 262 32 40 104 83 139 83 11 0
36 -4 54 -10z"/>
<path d="M3920 4996 l0 -496 105 0 105 0 0 163 0 163 68 -2 67 -2 87 -159 86
-158 116 -3 c64 -1 116 1 115 5 0 4 -47 85 -103 178 l-103 170 26 20 c67 51
103 91 128 143 24 49 28 69 28 142 0 76 -3 92 -33 152 -36 73 -79 114 -159
151 -45 20 -64 22 -290 25 l-243 3 0 -495z m457 288 c35 -25 63 -79 63 -119 0
-43 -30 -96 -69 -122 -30 -20 -47 -23 -137 -23 l-104 0 0 146 0 146 109 -4
c91 -3 115 -7 138 -24z"/>
<path d="M8121 5253 c-47 -131 -126 -354 -177 -495 l-91 -258 113 0 114 0 27
90 28 90 194 -2 194 -3 30 -87 29 -88 110 0 c100 0 110 2 106 18 -3 9 -74 206
-157 437 -84 231 -162 446 -173 478 l-21 57 -121 0 -121 0 -84 -237z m273
-198 c31 -94 56 -173 56 -178 0 -4 -57 -7 -126 -7 -97 0 -125 3 -122 13 3 6
31 89 64 184 32 95 62 169 65 165 4 -4 32 -84 63 -177z"/>
<path d="M8910 4995 l0 -495 105 0 105 0 0 495 0 495 -105 0 -105 0 0 -495z"/>
<path d="M6647 5204 c-29 -9 -65 -31 -92 -58 l-45 -43 0 49 0 48 -95 0 -95 0
0 -350 0 -350 100 0 100 0 0 173 c0 95 5 190 11 212 24 88 89 134 187 135 l52
0 0 94 c0 76 -3 95 -16 100 -24 9 -54 6 -107 -10z"/>
<path d="M7387 5201 c-110 -36 -198 -120 -234 -223 -29 -84 -24 -207 12 -286
58 -128 180 -205 330 -206 140 -2 252 62 309 176 40 81 39 82 -61 95 -79 10
-89 10 -98 -5 -60 -101 -179 -121 -256 -43 -76 76 -78 202 -4 276 71 70 166
67 229 -7 l35 -41 91 13 c54 8 90 18 90 24 0 7 -12 35 -26 63 -71 143 -258
217 -417 164z"/>
<path d="M4730 4988 c0 -255 10 -337 48 -397 73 -118 281 -146 382 -51 18 16
34 30 37 30 3 0 3 -16 1 -35 l-4 -35 93 0 93 0 0 350 0 350 -95 0 -95 0 0
-215 c0 -228 -5 -260 -49 -299 -29 -26 -109 -33 -148 -13 -57 30 -63 60 -63
306 l0 221 -100 0 -100 0 0 -212z"/>
<path d="M6850 4850 l0 -350 100 0 100 0 0 350 0 350 -100 0 -100 0 0 -350z"/>
</g>
</svg>
